<?xml version="1.0" encoding="utf-8"?>
<!-- Generator: Adobe Illustrator 25.2.0, SVG Export Plug-In . SVG Version: 6.00 Build 0)  -->
<svg version="1.1" id="B" xmlns="http://www.w3.org/2000/svg" xmlns:xlink="http://www.w3.org/1999/xlink" x="0px" y="0px"
	 viewBox="0 0 1366 768" style="enable-background:new 0 0 1366 768;" xml:space="preserve">
<style type="text/css">
	.st0{fill:#0073CF;stroke:#000000;stroke-width:10.1085;stroke-miterlimit:10;}
	.st1{fill:#FFFFFF;stroke:#000000;stroke-width:10.1085;stroke-miterlimit:10;}
</style>
<g>
	<path class="st0" d="M500,494.51V262.01c0,0,69.38-44.57,136.46-4.14s11.95,102,11.95,102s46.87,69.84,2.76,125.9
		C634.89,506.47,499.71,494.22,500,494.51z"/>
	<path class="st0" d="M579.49,239.5"/>
	<path class="st1" d="M543.65,283.61l2.76,62.49c0,0,27.24,0,52.68,0c0,0,43.81-12.87-0.3-57.89
		C583.05,272.14,543.65,283.61,543.65,283.61z"/>
	<path class="st1" d="M543.65,397.56v61.87h72.06c0,0,17.46,7.05-6.82-53.6C599.94,383.47,543.65,397.56,543.65,397.56z"/>
</g>
</svg>
